<svg width="18" height="18" viewBox="0 0 18 18" fill="none" xmlns="http://www.w3.org/2000/svg">
<path d="M13 0C13.2652 0 13.5196 0.105357 13.7071 0.292893C13.8946 0.48043 14 0.734784 14 1V2H16C16.5304 2 17.0391 2.21071 17.4142 2.58579C17.7893 2.96086 18 3.46957 18 4V16C18 16.5304 17.7893 17.0391 17.4142 17.4142C17.0391 17.7893 16.5304 18 16 18H2C1.46957 18 0.960859 17.7893 0.585786 17.4142C0.210714 17.0391 0 16.5304 0 16V4C0 3.46957 0.210714 2.96086 0.585786 2.58579C0.960859 2.21071 1.46957 2 2 2H4V1C4 0.734784 4.10536 0.48043 4.29289 0.292893C4.48043 0.105357 4.73478 0 5 0C5.26522 0 5.51957 0.105357 5.70711 0.292893C5.89464 0.48043 6 0.734784 6 1V2H12V1C12 0.734784 12.1054 0.48043 12.2929 0.292893C12.4804 0.105357 12.7348 0 13 0ZM16 4H2V16H16V4ZM11.824 6.379C12.0126 6.19684 12.2652 6.09605 12.5274 6.09833C12.7896 6.1006 13.0404 6.20577 13.2258 6.39118C13.4112 6.57659 13.5164 6.8274 13.5187 7.0896C13.521 7.3518 13.4202 7.6044 13.238 7.793L8.296 12.736C8.2022 12.8299 8.09082 12.9044 7.96822 12.9552C7.84562 13.006 7.71421 13.0321 7.5815 13.0321C7.44879 13.0321 7.31738 13.006 7.19478 12.9552C7.07218 12.9044 6.9608 12.8299 6.867 12.736L4.753 10.62C4.57084 10.4314 4.47005 10.1788 4.47233 9.9166C4.4746 9.6544 4.57977 9.40359 4.76518 9.21818C4.95059 9.03277 5.2014 8.9276 5.4636 8.92533C5.7258 8.92305 5.9784 9.02384 6.167 9.206L7.582 10.62L11.824 6.379Z" fill="#21272A"/>
</svg>
