<svg width="170" height="170" viewBox="0 0 170 170" fill="none" xmlns="http://www.w3.org/2000/svg">
<g id="Inner Circle">
<path id="Ellipse 210" d="M168.739 93.138C167.316 107.775 162.082 121.784 153.557 133.767C145.033 145.751 133.516 155.291 120.155 161.436L85.0001 84.9998L168.739 93.138Z" fill="#FF6363" stroke="white"/>
<path id="Ellipse 211" d="M120.043 161.487C102.093 169.711 81.8229 171.36 62.7801 166.145C43.7373 160.931 27.1349 149.185 15.8788 132.965C4.62275 116.744 -0.569994 97.0806 1.20946 77.4172C2.98891 57.7537 11.6272 39.3424 25.6124 25.4057L85 84.9998L120.043 161.487Z" fill="#22F200" stroke="white"/>
<path id="Ellipse 212" d="M25.509 25.5089C37.7485 13.2694 53.4652 5.10295 70.516 2.12306C87.5668 -0.856832 105.122 1.49491 120.787 8.85759C136.452 16.2203 149.465 28.2355 158.052 43.2649C166.638 58.2943 170.38 75.6063 168.767 92.8402L85 84.9998L25.509 25.5089Z" fill="#FF9F2E" stroke="white"/>
</g>
</svg>
